<svg xmlns="http://www.w3.org/2000/svg" version="1.1" xmlns:xlink="http://www.w3.org/1999/xlink" xmlns:svgjs="http://svgjs.dev/svgjs" width="1500" height="1500" viewBox="0 0 1500 1500"><rect width="1500" height="1500" fill="#929395"></rect><g transform="matrix(0.6666666666666666,0,0,0.6666666666666666,249.39393939393938,438.5856950067477)"><svg viewBox="0 0 396 247" data-background-color="#929395" preserveAspectRatio="xMidYMid meet" height="935" width="1500" xmlns="http://www.w3.org/2000/svg" xmlns:xlink="http://www.w3.org/1999/xlink"><g id="tight-bounds" transform="matrix(1,0,0,1,0.2400000000000091,-0.09999999999999432)"><svg viewBox="0 0 395.52 247.2" height="247.2" width="395.52"><g><svg></svg></g><g><svg viewBox="0 0 395.52 247.2" height="247.2" width="395.52"><mask id="2967cd48-64e4-44e1-aa2b-fdb580f34011"><rect width="395.52" height="247.2" fill="white"></rect><g transform="matrix(1,0,0,1,101.87849658314349,37.08)" id="clone"><svg viewBox="0 0 191.763006833713 173.04" height="173.04" width="191.763006833713"><g><svg viewBox="0 0 191.763006833713 173.04" height="173.04" width="191.763006833713"><g><svg viewBox="0 0 191.763006833713 173.04" height="173.04" width="191.763006833713"><g><svg viewBox="0 0 191.763006833713 173.04" height="173.04" width="191.763006833713"><g id="SvgjsG1971"><svg viewBox="0 0 191.763006833713 173.04" height="173.04" width="191.763006833713" id="SvgjsSvg1970"><g><svg viewBox="0 0 191.763006833713 173.04" height="173.04" width="191.763006833713"><g transform="matrix(1,0,0,1,0,0)"><svg width="191.763006833713" viewBox="-2.25 -36.75 49.65 44.9" height="173.04" data-palette-color="#e7eaed"><path d="M0.75 0L7.25-33.65 11.9-33.25Q12.75-33.45 14-33.6 15.25-33.75 16.75-33.75L16.75-33.75Q18.95-33.75 20.78-33.38 22.6-33 23.93-32.15 25.25-31.3 25.98-29.9 26.7-28.5 26.7-26.45L26.7-26.45Q26.7-24 25.98-22.13 25.25-20.25 23.98-18.88 22.7-17.5 20.9-16.63 19.1-15.75 17-15.3L17-15.3Q17.6-13.35 18.68-10.98 19.75-8.6 21.15-6.2 22.55-3.8 24.13-1.5 25.7 0.8 27.25 2.65L27.25 2.65 22.55 5.15Q20.2 2.15 18.57-0.3 16.95-2.75 15.78-5.05 14.6-7.35 13.68-9.73 12.75-12.1 11.8-14.9L11.8-14.9Q11.25-14.9 10.65-14.9 10.05-14.9 9.4-14.95L9.4-14.95 6.55 0 0.75 0ZM15.2-29.75Q14.35-29.75 13.63-29.7 12.9-29.65 12.25-29.55L12.25-29.55 10.2-18.95 11.2-18.95Q15.7-18.95 18.1-20.33 20.5-21.7 20.5-25.25L20.5-25.25Q20.5-27.25 19.3-28.5 18.1-29.75 15.2-29.75L15.2-29.75ZM28.3-20.45L28.3-24.5 33.3-24.5 35.5-30.75 40.25-31.8 38.8-24.5 44.4-24.5 43.7-20.45 38-20.45 35.2-5.7Q35.15-5.45 35.12-5.28 35.1-5.1 35.1-4.95L35.1-4.95Q35.1-4.25 35.5-3.98 35.9-3.7 37-3.7L37-3.7Q37.7-3.7 38.42-3.83 39.15-3.95 39.8-4.1L39.8-4.1Q40.55-4.3 41.25-4.55L41.25-4.55 41.25-0.8Q40.4-0.45 39.4-0.2L39.4-0.2Q38.55 0.05 37.37 0.23 36.2 0.4 34.9 0.4L34.9 0.4Q31.9 0.4 30.62-0.68 29.35-1.75 29.35-3.8L29.35-3.8Q29.35-4.45 29.5-5.2L29.5-5.2 32.55-20.45 28.3-20.45Z" opacity="1" transform="matrix(1,0,0,1,0,0)" fill="black" class="wordmark-text-0" id="SvgjsPath1969" stroke-width="5" stroke="black" stroke-linejoin="round"></path></svg></g></svg></g></svg></g></svg></g></svg></g></svg></g></svg></g></mask><g mask="url(#2967cd48-64e4-44e1-aa2b-fdb580f34011)"><g><path d="M113.559 214.473l41.306-213.838 29.55 2.542c3.601-0.847 8.049-1.589 13.345-2.224 5.296-0.635 11.121-0.953 17.476-0.953v0c9.32 0 17.857 0.784 25.609 2.351 7.71 1.61 14.383 4.215 20.018 7.817 5.592 3.601 9.935 8.367 13.027 14.298 3.05 5.931 4.575 13.239 4.575 21.924v0c0 10.379-1.525 19.53-4.575 27.452-3.093 7.965-7.329 14.849-12.71 20.653-5.423 5.846-11.947 10.612-19.572 14.298-7.626 3.728-15.887 6.545-24.784 8.452v0c2.542 8.261 6.101 17.412 10.676 27.453 4.533 10.083 9.765 20.208 15.697 30.376 5.931 10.168 12.243 20.123 18.937 29.867 6.651 9.744 13.26 18.535 19.827 26.372v0l-29.868 15.887c-9.956-12.71-18.386-24.254-25.292-34.633-6.863-10.379-12.773-20.441-17.73-30.186-4.999-9.744-9.447-19.657-13.345-29.74-3.94-10.041-7.922-20.992-11.946-32.854v0c-2.33 0-4.766 0-7.308 0-2.542 0-5.19-0.106-7.944-0.318v0l-18.111 95.004zM205.386 25.419c-3.601 0-6.927 0.106-9.977 0.318-3.093 0.212-6.016 0.53-8.77 0.953v0l-13.027 67.36h6.355c19.064 0 33.68-2.923 43.847-8.769 10.168-5.804 15.251-16.226 15.252-31.266v0c0-8.473-2.542-15.357-7.626-20.653-5.084-5.296-13.769-7.943-26.054-7.943z" fill="#395e88" fill-rule="nonzero" stroke="none" stroke-width="1" stroke-linecap="butt" stroke-linejoin="miter" stroke-miterlimit="10" stroke-dasharray="" stroke-dashoffset="0" font-family="none" font-weight="none" font-size="none" text-anchor="none" style="mix-blend-mode: normal" data-fill-palette-color="tertiary"></path></g></g><g transform="matrix(1,0,0,1,101.87849658314349,37.08)"><svg viewBox="0 0 191.763006833713 173.04" height="173.04" width="191.763006833713"><g><svg viewBox="0 0 191.763006833713 173.04" height="173.04" width="191.763006833713"><g><svg viewBox="0 0 191.763006833713 173.04" height="173.04" width="191.763006833713"><g><svg viewBox="0 0 191.763006833713 173.04" height="173.04" width="191.763006833713"><g id="textblocktransform"><svg viewBox="0 0 191.763006833713 173.04" height="173.04" width="191.763006833713" id="textblock"><g><svg viewBox="0 0 191.763006833713 173.04" height="173.04" width="191.763006833713"><g transform="matrix(1,0,0,1,0,0)"><svg width="191.763006833713" viewBox="-2.25 -36.75 49.65 44.9" height="173.04" data-palette-color="#e7eaed"><path d="M0.75 0L7.25-33.65 11.9-33.25Q12.75-33.45 14-33.6 15.25-33.75 16.75-33.75L16.75-33.75Q18.95-33.75 20.78-33.38 22.6-33 23.93-32.15 25.25-31.3 25.98-29.9 26.7-28.5 26.7-26.45L26.7-26.45Q26.7-24 25.98-22.13 25.25-20.25 23.98-18.88 22.7-17.5 20.9-16.63 19.1-15.75 17-15.3L17-15.3Q17.6-13.35 18.68-10.98 19.75-8.6 21.15-6.2 22.55-3.8 24.13-1.5 25.7 0.8 27.25 2.65L27.25 2.65 22.55 5.15Q20.2 2.15 18.57-0.3 16.95-2.75 15.78-5.05 14.6-7.35 13.68-9.73 12.75-12.1 11.8-14.9L11.8-14.9Q11.25-14.9 10.65-14.9 10.05-14.9 9.4-14.95L9.4-14.95 6.55 0 0.75 0ZM15.2-29.75Q14.35-29.75 13.63-29.7 12.9-29.65 12.25-29.55L12.25-29.55 10.2-18.95 11.2-18.95Q15.7-18.95 18.1-20.33 20.5-21.7 20.5-25.25L20.5-25.25Q20.5-27.25 19.3-28.5 18.1-29.75 15.2-29.75L15.2-29.75ZM28.3-20.45L28.3-24.5 33.3-24.5 35.5-30.75 40.25-31.8 38.8-24.5 44.4-24.5 43.7-20.45 38-20.45 35.2-5.7Q35.15-5.45 35.12-5.28 35.1-5.1 35.1-4.95L35.1-4.95Q35.1-4.25 35.5-3.98 35.9-3.7 37-3.7L37-3.7Q37.7-3.7 38.42-3.83 39.15-3.95 39.8-4.1L39.8-4.1Q40.55-4.3 41.25-4.55L41.25-4.55 41.25-0.8Q40.4-0.45 39.4-0.2L39.4-0.2Q38.55 0.05 37.37 0.23 36.2 0.4 34.9 0.4L34.9 0.4Q31.9 0.4 30.62-0.68 29.35-1.75 29.35-3.8L29.35-3.8Q29.35-4.45 29.5-5.2L29.5-5.2 32.55-20.45 28.3-20.45Z" opacity="1" transform="matrix(1,0,0,1,0,0)" fill="#e7eaed" class="wordmark-text-0" data-fill-palette-color="primary" id="text-0"></path></svg></g></svg></g></svg></g></svg></g></svg></g></svg></g></svg></g></svg></g><defs></defs></svg><rect width="395.52" height="247.2" fill="none" stroke="none" visibility="hidden"></rect></g></svg></g></svg>